<svg width="709" height="100" viewBox="0 0 709 100" fill="none" xmlns="http://www.w3.org/2000/svg">
<path d="M14.688 15.752C16.3093 16.136 17.6213 16.8933 18.624 18.024C19.648 19.1333 20.16 20.5307 20.16 22.216C20.16 24.456 19.4027 26.216 17.888 27.496C16.3733 28.776 14.5173 29.416 12.32 29.416C10.6133 29.416 9.07733 29.0213 7.712 28.232C6.368 27.4427 5.39733 26.2907 4.8 24.776L7.936 22.952C8.59733 24.872 10.0587 25.832 12.32 25.832C13.6 25.832 14.6133 25.512 15.36 24.872C16.1067 24.2107 16.48 23.3253 16.48 22.216C16.48 21.1067 16.1067 20.232 15.36 19.592C14.6133 18.952 13.6 18.632 12.32 18.632H11.488L10.016 16.424L14.848 10.056H5.472V6.6H19.232V9.736L14.688 15.752ZM44.9613 6.6V29H41.2812V13.032L34.4653 24.296H34.0173L27.2013 13V29H23.5213V6.6H27.4893L34.2413 17.8L41.0253 6.6H44.9613Z" fill="#141414"/>
<path d="M12.576 60L11.664 57.488H6.624L5.712 60H4.128L8.304 48.8H9.984L14.16 60H12.576ZM7.136 56.096H11.152L9.136 50.576L7.136 56.096ZM18.9098 60.208C17.7044 60.208 16.7018 59.808 15.9018 59.008C15.1018 58.1973 14.7018 57.1947 14.7018 56C14.7018 54.8053 15.1018 53.808 15.9018 53.008C16.7018 52.1973 17.7044 51.792 18.9098 51.792C19.6991 51.792 20.4084 51.984 21.0378 52.368C21.6671 52.7413 22.1364 53.248 22.4458 53.888L21.2778 54.56C21.0751 54.1333 20.7604 53.792 20.3338 53.536C19.9178 53.28 19.4431 53.152 18.9098 53.152C18.1098 53.152 17.4378 53.424 16.8938 53.968C16.3604 54.512 16.0938 55.1893 16.0938 56C16.0938 56.8 16.3604 57.472 16.8938 58.016C17.4378 58.56 18.1098 58.832 18.9098 58.832C19.4431 58.832 19.9231 58.7093 20.3498 58.464C20.7764 58.208 21.1018 57.8667 21.3258 57.44L22.5098 58.128C22.1684 58.7573 21.6778 59.264 21.0378 59.648C20.3978 60.0213 19.6884 60.208 18.9098 60.208ZM28.2361 53.344H26.1081V57.68C26.1081 58.0747 26.1828 58.3573 26.3321 58.528C26.4921 58.688 26.7321 58.7733 27.0521 58.784C27.3721 58.784 27.7668 58.7733 28.2361 58.752V60C27.0201 60.16 26.1295 60.064 25.5641 59.712C24.9988 59.3493 24.7161 58.672 24.7161 57.68V53.344H23.1321V52H24.7161V50.176L26.1081 49.76V52H28.2361V53.344ZM30.5881 50.544C30.3215 50.544 30.0975 50.4533 29.9161 50.272C29.7348 50.0907 29.6441 49.872 29.6441 49.616C29.6441 49.36 29.7348 49.1413 29.9161 48.96C30.0975 48.768 30.3215 48.672 30.5881 48.672C30.8441 48.672 31.0628 48.768 31.2441 48.96C31.4255 49.1413 31.5161 49.36 31.5161 49.616C31.5161 49.872 31.4255 50.0907 31.2441 50.272C31.0628 50.4533 30.8441 50.544 30.5881 50.544ZM29.8841 60V52H31.2761V60H29.8841ZM38.9998 52H40.5038L37.3038 60H35.6718L32.4718 52H33.9758L36.4878 58.512L38.9998 52ZM42.3445 56.64C42.4832 57.3547 42.8085 57.9093 43.3205 58.304C43.8432 58.6987 44.4832 58.896 45.2405 58.896C46.2965 58.896 47.0645 58.5067 47.5445 57.728L48.7285 58.4C47.9498 59.6053 46.7765 60.208 45.2085 60.208C43.9392 60.208 42.9045 59.8133 42.1045 59.024C41.3152 58.224 40.9205 57.216 40.9205 56C40.9205 54.7947 41.3098 53.792 42.0885 52.992C42.8672 52.192 43.8752 51.792 45.1125 51.792C46.2858 51.792 47.2405 52.208 47.9765 53.04C48.7232 53.8613 49.0965 54.8533 49.0965 56.016C49.0965 56.2187 49.0805 56.4267 49.0485 56.64H42.3445ZM45.1125 53.104C44.3658 53.104 43.7472 53.3173 43.2565 53.744C42.7658 54.16 42.4618 54.72 42.3445 55.424H47.6885C47.5712 54.6667 47.2725 54.0907 46.7925 53.696C46.3125 53.3013 45.7525 53.104 45.1125 53.104ZM60.2166 52H61.6086V60H60.2166V58.848C59.6513 59.7547 58.7873 60.208 57.6246 60.208C56.686 60.208 55.934 59.9147 55.3686 59.328C54.8033 58.7307 54.5206 57.9253 54.5206 56.912V52H55.9126V56.832C55.9126 57.4827 56.0886 57.9893 56.4406 58.352C56.7926 58.704 57.278 58.88 57.8966 58.88C58.59 58.88 59.15 58.6667 59.5766 58.24C60.0033 57.8027 60.2166 57.136 60.2166 56.24V52ZM64.9123 54.16C64.9123 54.4693 65.0669 54.72 65.3763 54.912C65.6856 55.0933 66.0589 55.2427 66.4963 55.36C66.9336 55.4667 67.3709 55.5947 67.8083 55.744C68.2456 55.8827 68.6189 56.128 68.9283 56.48C69.2376 56.8213 69.3923 57.264 69.3923 57.808C69.3923 58.5333 69.1096 59.1147 68.5443 59.552C67.9896 59.9893 67.2749 60.208 66.4003 60.208C65.6216 60.208 64.9549 60.0373 64.4003 59.696C63.8456 59.3547 63.4509 58.9013 63.2163 58.336L64.4163 57.648C64.5443 58.032 64.7843 58.336 65.1363 58.56C65.4883 58.784 65.9096 58.896 66.4003 58.896C66.8589 58.896 67.2376 58.8107 67.5363 58.64C67.8349 58.4587 67.9843 58.1813 67.9843 57.808C67.9843 57.4987 67.8296 57.2533 67.5203 57.072C67.2109 56.88 66.8376 56.7307 66.4003 56.624C65.9629 56.5067 65.5256 56.3733 65.0883 56.224C64.6509 56.0747 64.2776 55.8293 63.9683 55.488C63.6589 55.1467 63.5043 54.7093 63.5043 54.176C63.5043 53.4827 63.7709 52.912 64.3043 52.464C64.8483 52.016 65.5256 51.792 66.3363 51.792C66.9869 51.792 67.5629 51.9413 68.0643 52.24C68.5763 52.528 68.9603 52.9333 69.2163 53.456L68.0483 54.112C67.7603 53.4293 67.1896 53.088 66.3363 53.088C65.9416 53.088 65.6056 53.184 65.3283 53.376C65.0509 53.5573 64.9123 53.8187 64.9123 54.16ZM71.7976 56.64C71.9363 57.3547 72.2616 57.9093 72.7736 58.304C73.2963 58.6987 73.9363 58.896 74.6936 58.896C75.7496 58.896 76.5176 58.5067 76.9976 57.728L78.1816 58.4C77.403 59.6053 76.2296 60.208 74.6616 60.208C73.3923 60.208 72.3576 59.8133 71.5576 59.024C70.7683 58.224 70.3736 57.216 70.3736 56C70.3736 54.7947 70.763 53.792 71.5416 52.992C72.3203 52.192 73.3283 51.792 74.5656 51.792C75.739 51.792 76.6936 52.208 77.4296 53.04C78.1763 53.8613 78.5496 54.8533 78.5496 56.016C78.5496 56.2187 78.5336 56.4267 78.5016 56.64H71.7976ZM74.5656 53.104C73.819 53.104 73.2003 53.3173 72.7096 53.744C72.219 54.16 71.915 54.72 71.7976 55.424H77.1416C77.0243 54.6667 76.7256 54.0907 76.2456 53.696C75.7656 53.3013 75.2056 53.104 74.5656 53.104ZM81.5418 53.344C82.0004 52.352 82.8324 51.856 84.0378 51.856V53.312C83.3551 53.28 82.7684 53.4613 82.2778 53.856C81.7871 54.2507 81.5418 54.8853 81.5418 55.76V60H80.1497V52H81.5418V53.344ZM86.3029 54.16C86.3029 54.4693 86.4575 54.72 86.7669 54.912C87.0762 55.0933 87.4495 55.2427 87.8869 55.36C88.3242 55.4667 88.7615 55.5947 89.1989 55.744C89.6362 55.8827 90.0095 56.128 90.3189 56.48C90.6282 56.8213 90.7829 57.264 90.7829 57.808C90.7829 58.5333 90.5002 59.1147 89.9349 59.552C89.3802 59.9893 88.6655 60.208 87.7909 60.208C87.0122 60.208 86.3455 60.0373 85.7909 59.696C85.2362 59.3547 84.8415 58.9013 84.6069 58.336L85.8069 57.648C85.9349 58.032 86.1749 58.336 86.5269 58.56C86.8789 58.784 87.3002 58.896 87.7909 58.896C88.2495 58.896 88.6282 58.8107 88.9269 58.64C89.2255 58.4587 89.3749 58.1813 89.3749 57.808C89.3749 57.4987 89.2202 57.2533 88.9109 57.072C88.6015 56.88 88.2282 56.7307 87.7909 56.624C87.3535 56.5067 86.9162 56.3733 86.4789 56.224C86.0415 56.0747 85.6682 55.8293 85.3589 55.488C85.0495 55.1467 84.8949 54.7093 84.8949 54.176C84.8949 53.4827 85.1615 52.912 85.6949 52.464C86.2389 52.016 86.9162 51.792 87.7269 51.792C88.3775 51.792 88.9535 51.9413 89.4549 52.24C89.9669 52.528 90.3509 52.9333 90.6069 53.456L89.4389 54.112C89.1509 53.4293 88.5802 53.088 87.7269 53.088C87.3322 53.088 86.9962 53.184 86.7189 53.376C86.4415 53.5573 86.3029 53.8187 86.3029 54.16Z" fill="#141414"/>
<path d="M172.736 14.12C175.061 14.12 176.96 14.8347 178.432 16.264C179.904 17.672 180.64 19.5067 180.64 21.768C180.64 24.0293 179.904 25.8747 178.432 27.304C176.96 28.712 175.061 29.416 172.736 29.416C170.389 29.416 168.48 28.712 167.008 27.304C165.536 25.8747 164.8 24.0293 164.8 21.768C164.8 20.0613 165.248 18.5573 166.144 17.256L173.248 6.6H177.44L172.32 14.12H172.736ZM172.736 25.928C173.973 25.928 174.987 25.5547 175.776 24.808C176.565 24.04 176.96 23.0267 176.96 21.768C176.96 20.5093 176.565 19.5067 175.776 18.76C174.987 17.992 173.973 17.608 172.736 17.608C171.477 17.608 170.453 17.992 169.664 18.76C168.875 19.5067 168.48 20.5093 168.48 21.768C168.48 23.0267 168.875 24.04 169.664 24.808C170.453 25.5547 171.477 25.928 172.736 25.928ZM197.982 26.248C196.446 28.36 194.291 29.416 191.518 29.416C188.744 29.416 186.579 28.36 185.022 26.248C183.486 24.136 182.718 21.32 182.718 17.8C182.718 14.28 183.486 11.464 185.022 9.352C186.579 7.24 188.744 6.184 191.518 6.184C194.291 6.184 196.446 7.24 197.982 9.352C199.539 11.464 200.318 14.28 200.318 17.8C200.318 21.32 199.539 24.136 197.982 26.248ZM191.518 25.832C193.182 25.832 194.451 25.1387 195.326 23.752C196.2 22.3653 196.638 20.3813 196.638 17.8C196.638 15.2187 196.2 13.2347 195.326 11.848C194.451 10.4613 193.182 9.768 191.518 9.768C189.875 9.768 188.606 10.4613 187.71 11.848C186.835 13.2347 186.398 15.2187 186.398 17.8C186.398 20.3813 186.835 22.3653 187.71 23.752C188.606 25.1387 189.875 25.832 191.518 25.832ZM225.274 6.6V29H221.594V13.032L214.778 24.296H214.33L207.514 13V29H203.834V6.6H207.802L214.554 17.8L221.338 6.6H225.274Z" fill="#141414"/>
<path d="M166.688 58.592H171.52V60H165.2V48.8H166.688V58.592ZM173.573 50.544C173.306 50.544 173.082 50.4533 172.901 50.272C172.719 50.0907 172.629 49.872 172.629 49.616C172.629 49.36 172.719 49.1413 172.901 48.96C173.082 48.768 173.306 48.672 173.573 48.672C173.829 48.672 174.047 48.768 174.229 48.96C174.41 49.1413 174.501 49.36 174.501 49.616C174.501 49.872 174.41 50.0907 174.229 50.272C174.047 50.4533 173.829 50.544 173.573 50.544ZM172.868 60V52H174.261V60H172.868ZM180.368 51.792C181.307 51.792 182.059 52.0907 182.624 52.688C183.189 53.2747 183.472 54.0747 183.472 55.088V60H182.08V55.168C182.08 54.5173 181.904 54.016 181.552 53.664C181.2 53.3013 180.715 53.12 180.096 53.12C179.403 53.12 178.843 53.3387 178.416 53.776C177.989 54.2027 177.776 54.864 177.776 55.76V60H176.384V52H177.776V53.152C178.341 52.2453 179.205 51.792 180.368 51.792ZM192.183 60H190.455L186.807 56.208V60H185.415V48.8H186.807V55.536L190.263 52H192.055L188.231 55.872L192.183 60ZM194.069 54.16C194.069 54.4693 194.223 54.72 194.533 54.912C194.842 55.0933 195.215 55.2427 195.653 55.36C196.09 55.4667 196.527 55.5947 196.965 55.744C197.402 55.8827 197.775 56.128 198.085 56.48C198.394 56.8213 198.549 57.264 198.549 57.808C198.549 58.5333 198.266 59.1147 197.701 59.552C197.146 59.9893 196.431 60.208 195.557 60.208C194.778 60.208 194.111 60.0373 193.557 59.696C193.002 59.3547 192.607 58.9013 192.373 58.336L193.573 57.648C193.701 58.032 193.941 58.336 194.293 58.56C194.645 58.784 195.066 58.896 195.557 58.896C196.015 58.896 196.394 58.8107 196.693 58.64C196.991 58.4587 197.141 58.1813 197.141 57.808C197.141 57.4987 196.986 57.2533 196.677 57.072C196.367 56.88 195.994 56.7307 195.557 56.624C195.119 56.5067 194.682 56.3733 194.245 56.224C193.807 56.0747 193.434 55.8293 193.125 55.488C192.815 55.1467 192.661 54.7093 192.661 54.176C192.661 53.4827 192.927 52.912 193.461 52.464C194.005 52.016 194.682 51.792 195.493 51.792C196.143 51.792 196.719 51.9413 197.221 52.24C197.733 52.528 198.117 52.9333 198.373 53.456L197.205 54.112C196.917 53.4293 196.346 53.088 195.493 53.088C195.098 53.088 194.762 53.184 194.485 53.376C194.207 53.5573 194.069 53.8187 194.069 54.16ZM213.365 59.536L212.117 60.256L210.981 59.04C210.149 59.8187 209.082 60.208 207.781 60.208C206.661 60.208 205.754 59.92 205.061 59.344C204.367 58.7573 204.021 57.968 204.021 56.976C204.021 56.2933 204.191 55.6693 204.533 55.104C204.885 54.528 205.397 54.0747 206.069 53.744C205.589 53.136 205.349 52.4587 205.349 51.712C205.349 50.784 205.669 50.032 206.309 49.456C206.959 48.88 207.738 48.592 208.645 48.592C209.391 48.592 210.069 48.7947 210.677 49.2C211.285 49.6053 211.722 50.1653 211.989 50.88L210.741 51.6C210.581 51.1093 210.314 50.7253 209.941 50.448C209.578 50.1707 209.157 50.032 208.677 50.032C208.165 50.032 207.727 50.1867 207.365 50.496C207.013 50.8053 206.837 51.2053 206.837 51.696C206.837 52.048 206.917 52.368 207.077 52.656C207.247 52.9333 207.498 53.248 207.829 53.6L210.885 56.864C211.151 56.3093 211.343 55.632 211.461 54.832L212.741 55.568C212.591 56.4533 212.303 57.248 211.877 57.952L213.365 59.536ZM207.813 58.8C208.698 58.8 209.434 58.5387 210.021 58.016L206.997 54.768C206.485 54.9813 206.106 55.28 205.861 55.664C205.626 56.048 205.509 56.4533 205.509 56.88C205.509 57.4773 205.711 57.9467 206.117 58.288C206.522 58.6293 207.087 58.8 207.813 58.8ZM229.942 54.4C229.942 55.936 229.414 57.264 228.358 58.384L229.59 59.616L228.566 60.544L227.302 59.264C226.332 59.8933 225.276 60.208 224.134 60.208C222.534 60.208 221.169 59.6427 220.038 58.512C218.908 57.3813 218.342 56.0107 218.342 54.4C218.342 52.7893 218.908 51.4187 220.038 50.288C221.169 49.1573 222.534 48.592 224.134 48.592C225.734 48.592 227.1 49.1573 228.23 50.288C229.372 51.4187 229.942 52.7893 229.942 54.4ZM224.134 58.752C224.902 58.752 225.606 58.5707 226.246 58.208L224.006 55.952L225.03 55.04L227.334 57.344C228.081 56.5333 228.454 55.552 228.454 54.4C228.454 53.1733 228.033 52.1387 227.19 51.296C226.358 50.4533 225.34 50.032 224.134 50.032C222.929 50.032 221.905 50.4533 221.062 51.296C220.23 52.1387 219.814 53.1733 219.814 54.4C219.814 55.616 220.23 56.6453 221.062 57.488C221.905 58.3307 222.929 58.752 224.134 58.752ZM238.449 60L235.937 55.712H233.297V60H231.809V48.8H236.289C237.249 48.8 238.071 49.1413 238.753 49.824C239.436 50.496 239.777 51.312 239.777 52.272C239.777 52.9973 239.559 53.6587 239.121 54.256C238.695 54.8533 238.14 55.2747 237.457 55.52L240.097 60H238.449ZM233.297 50.192V54.368H236.289C236.844 54.368 237.313 54.1653 237.697 53.76C238.092 53.344 238.289 52.848 238.289 52.272C238.289 51.696 238.092 51.2053 237.697 50.8C237.313 50.3947 236.844 50.192 236.289 50.192H233.297ZM168.816 84.208C167.611 84.208 166.608 83.808 165.808 83.008C165.008 82.1973 164.608 81.1947 164.608 80C164.608 78.8053 165.008 77.808 165.808 77.008C166.608 76.1973 167.611 75.792 168.816 75.792C169.605 75.792 170.315 75.984 170.944 76.368C171.573 76.7413 172.043 77.248 172.352 77.888L171.184 78.56C170.981 78.1333 170.667 77.792 170.24 77.536C169.824 77.28 169.349 77.152 168.816 77.152C168.016 77.152 167.344 77.424 166.8 77.968C166.267 78.512 166 79.1893 166 80C166 80.8 166.267 81.472 166.8 82.016C167.344 82.56 168.016 82.832 168.816 82.832C169.349 82.832 169.829 82.7093 170.256 82.464C170.683 82.208 171.008 81.8667 171.232 81.44L172.416 82.128C172.075 82.7573 171.584 83.264 170.944 83.648C170.304 84.0213 169.595 84.208 168.816 84.208ZM180.433 82.992C179.612 83.8027 178.614 84.208 177.441 84.208C176.268 84.208 175.27 83.8027 174.449 82.992C173.638 82.1813 173.233 81.184 173.233 80C173.233 78.816 173.638 77.8187 174.449 77.008C175.27 76.1973 176.268 75.792 177.441 75.792C178.614 75.792 179.612 76.1973 180.433 77.008C181.254 77.8187 181.665 78.816 181.665 80C181.665 81.184 181.254 82.1813 180.433 82.992ZM177.441 82.848C178.241 82.848 178.913 82.576 179.457 82.032C180.001 81.488 180.273 80.8107 180.273 80C180.273 79.1893 180.001 78.512 179.457 77.968C178.913 77.424 178.241 77.152 177.441 77.152C176.652 77.152 175.985 77.424 175.441 77.968C174.897 78.512 174.625 79.1893 174.625 80C174.625 80.8107 174.897 81.488 175.441 82.032C175.985 82.576 176.652 82.848 177.441 82.848ZM189.93 72.8H191.322V84H189.93V82.624C189.237 83.68 188.229 84.208 186.906 84.208C185.786 84.208 184.831 83.8027 184.042 82.992C183.253 82.1707 182.858 81.1733 182.858 80C182.858 78.8267 183.253 77.8347 184.042 77.024C184.831 76.2027 185.786 75.792 186.906 75.792C188.229 75.792 189.237 76.32 189.93 77.376V72.8ZM187.082 82.864C187.893 82.864 188.57 82.592 189.114 82.048C189.658 81.4933 189.93 80.8107 189.93 80C189.93 79.1893 189.658 78.512 189.114 77.968C188.57 77.4133 187.893 77.136 187.082 77.136C186.282 77.136 185.61 77.4133 185.066 77.968C184.522 78.512 184.25 79.1893 184.25 80C184.25 80.8107 184.522 81.4933 185.066 82.048C185.61 82.592 186.282 82.864 187.082 82.864ZM194.407 80.64C194.546 81.3547 194.871 81.9093 195.383 82.304C195.906 82.6987 196.546 82.896 197.303 82.896C198.359 82.896 199.127 82.5067 199.607 81.728L200.791 82.4C200.012 83.6053 198.839 84.208 197.271 84.208C196.002 84.208 194.967 83.8133 194.167 83.024C193.378 82.224 192.983 81.216 192.983 80C192.983 78.7947 193.372 77.792 194.151 76.992C194.93 76.192 195.938 75.792 197.175 75.792C198.348 75.792 199.303 76.208 200.039 77.04C200.786 77.8613 201.159 78.8533 201.159 80.016C201.159 80.2187 201.143 80.4267 201.111 80.64H194.407ZM197.175 77.104C196.428 77.104 195.81 77.3173 195.319 77.744C194.828 78.16 194.524 78.72 194.407 79.424H199.751C199.634 78.6667 199.335 78.0907 198.855 77.696C198.375 77.3013 197.815 77.104 197.175 77.104ZM203.647 78.16C203.647 78.4693 203.801 78.72 204.111 78.912C204.42 79.0933 204.793 79.2427 205.231 79.36C205.668 79.4667 206.105 79.5947 206.543 79.744C206.98 79.8827 207.353 80.128 207.663 80.48C207.972 80.8213 208.127 81.264 208.127 81.808C208.127 82.5333 207.844 83.1147 207.279 83.552C206.724 83.9893 206.009 84.208 205.135 84.208C204.356 84.208 203.689 84.0373 203.135 83.696C202.58 83.3547 202.185 82.9013 201.951 82.336L203.151 81.648C203.279 82.032 203.519 82.336 203.871 82.56C204.223 82.784 204.644 82.896 205.135 82.896C205.593 82.896 205.972 82.8107 206.271 82.64C206.569 82.4587 206.719 82.1813 206.719 81.808C206.719 81.4987 206.564 81.2533 206.255 81.072C205.945 80.88 205.572 80.7307 205.135 80.624C204.697 80.5067 204.26 80.3733 203.823 80.224C203.385 80.0747 203.012 79.8293 202.703 79.488C202.393 79.1467 202.239 78.7093 202.239 78.176C202.239 77.4827 202.505 76.912 203.039 76.464C203.583 76.016 204.26 75.792 205.071 75.792C205.721 75.792 206.297 75.9413 206.799 76.24C207.311 76.528 207.695 76.9333 207.951 77.456L206.783 78.112C206.495 77.4293 205.924 77.088 205.071 77.088C204.676 77.088 204.34 77.184 204.063 77.376C203.785 77.5573 203.647 77.8187 203.647 78.16ZM217.535 84.208C216.329 84.208 215.327 83.808 214.527 83.008C213.727 82.1973 213.327 81.1947 213.327 80C213.327 78.8053 213.727 77.808 214.527 77.008C215.327 76.1973 216.329 75.792 217.535 75.792C218.324 75.792 219.033 75.984 219.663 76.368C220.292 76.7413 220.761 77.248 221.071 77.888L219.903 78.56C219.7 78.1333 219.385 77.792 218.959 77.536C218.543 77.28 218.068 77.152 217.535 77.152C216.735 77.152 216.063 77.424 215.519 77.968C214.985 78.512 214.719 79.1893 214.719 80C214.719 80.8 214.985 81.472 215.519 82.016C216.063 82.56 216.735 82.832 217.535 82.832C218.068 82.832 218.548 82.7093 218.975 82.464C219.401 82.208 219.727 81.8667 219.951 81.44L221.135 82.128C220.793 82.7573 220.303 83.264 219.663 83.648C219.023 84.0213 218.313 84.208 217.535 84.208ZM223.917 77.344C224.375 76.352 225.207 75.856 226.413 75.856V77.312C225.73 77.28 225.143 77.4613 224.653 77.856C224.162 78.2507 223.917 78.8853 223.917 79.76V84H222.525V76H223.917V77.344ZM228.313 80.64C228.452 81.3547 228.777 81.9093 229.289 82.304C229.812 82.6987 230.452 82.896 231.209 82.896C232.265 82.896 233.033 82.5067 233.513 81.728L234.697 82.4C233.919 83.6053 232.745 84.208 231.177 84.208C229.908 84.208 228.873 83.8133 228.073 83.024C227.284 82.224 226.889 81.216 226.889 80C226.889 78.7947 227.279 77.792 228.057 76.992C228.836 76.192 229.844 75.792 231.081 75.792C232.255 75.792 233.209 76.208 233.945 77.04C234.692 77.8613 235.065 78.8533 235.065 80.016C235.065 80.2187 235.049 80.4267 235.017 80.64H228.313ZM231.081 77.104C230.335 77.104 229.716 77.3173 229.225 77.744C228.735 78.16 228.431 78.72 228.313 79.424H233.657C233.54 78.6667 233.241 78.0907 232.761 77.696C232.281 77.3013 231.721 77.104 231.081 77.104ZM243.274 76H244.666V84H243.274V82.624C242.58 83.68 241.572 84.208 240.25 84.208C239.13 84.208 238.175 83.8027 237.386 82.992C236.596 82.1707 236.202 81.1733 236.202 80C236.202 78.8267 236.596 77.8347 237.386 77.024C238.175 76.2027 239.13 75.792 240.25 75.792C241.572 75.792 242.58 76.32 243.274 77.376V76ZM240.426 82.864C241.236 82.864 241.914 82.592 242.458 82.048C243.002 81.4933 243.274 80.8107 243.274 80C243.274 79.1893 243.002 78.512 242.458 77.968C241.914 77.4133 241.236 77.136 240.426 77.136C239.626 77.136 238.954 77.4133 238.41 77.968C237.866 78.512 237.594 79.1893 237.594 80C237.594 80.8107 237.866 81.4933 238.41 82.048C238.954 82.592 239.626 82.864 240.426 82.864ZM251.127 77.344H248.999V81.68C248.999 82.0747 249.073 82.3573 249.223 82.528C249.383 82.688 249.623 82.7733 249.943 82.784C250.263 82.784 250.657 82.7733 251.127 82.752V84C249.911 84.16 249.02 84.064 248.455 83.712C247.889 83.3493 247.607 82.672 247.607 81.68V77.344H246.023V76H247.607V74.176L248.999 73.76V76H251.127V77.344ZM253.345 80.64C253.483 81.3547 253.809 81.9093 254.321 82.304C254.843 82.6987 255.483 82.896 256.241 82.896C257.297 82.896 258.065 82.5067 258.545 81.728L259.729 82.4C258.95 83.6053 257.777 84.208 256.209 84.208C254.939 84.208 253.905 83.8133 253.105 83.024C252.315 82.224 251.921 81.216 251.921 80C251.921 78.7947 252.31 77.792 253.089 76.992C253.867 76.192 254.875 75.792 256.113 75.792C257.286 75.792 258.241 76.208 258.977 77.04C259.723 77.8613 260.097 78.8533 260.097 80.016C260.097 80.2187 260.081 80.4267 260.049 80.64H253.345ZM256.113 77.104C255.366 77.104 254.747 77.3173 254.257 77.744C253.766 78.16 253.462 78.72 253.345 79.424H258.689C258.571 78.6667 258.273 78.0907 257.793 77.696C257.313 77.3013 256.753 77.104 256.113 77.104ZM268.305 72.8H269.697V84H268.305V82.624C267.612 83.68 266.604 84.208 265.281 84.208C264.161 84.208 263.206 83.8027 262.417 82.992C261.628 82.1707 261.233 81.1733 261.233 80C261.233 78.8267 261.628 77.8347 262.417 77.024C263.206 76.2027 264.161 75.792 265.281 75.792C266.604 75.792 267.612 76.32 268.305 77.376V72.8ZM265.457 82.864C266.268 82.864 266.945 82.592 267.489 82.048C268.033 81.4933 268.305 80.8107 268.305 80C268.305 79.1893 268.033 78.512 267.489 77.968C266.945 77.4133 266.268 77.136 265.457 77.136C264.657 77.136 263.985 77.4133 263.441 77.968C262.897 78.512 262.625 79.1893 262.625 80C262.625 80.8107 262.897 81.4933 263.441 82.048C263.985 82.592 264.657 82.864 265.457 82.864Z" fill="#141414"/>
<path d="M373.304 6.6H376.504V29H372.824V10.536L368.312 11.816L367.416 8.68L373.304 6.6ZM394.33 17.384C395.312 17.896 396.08 18.6 396.634 19.496C397.189 20.392 397.466 21.4267 397.466 22.6C397.466 24.4347 396.816 25.96 395.514 27.176C394.213 28.392 392.624 29 390.746 29H381.146V6.6H390.042C391.877 6.6 393.424 7.19733 394.682 8.392C395.962 9.56533 396.602 11.0373 396.602 12.808C396.602 14.7493 395.845 16.2747 394.33 17.384ZM390.042 10.056H384.826V15.944H390.042C390.853 15.944 391.536 15.6667 392.09 15.112C392.645 14.536 392.922 13.832 392.922 13C392.922 12.168 392.645 11.4747 392.09 10.92C391.536 10.344 390.853 10.056 390.042 10.056ZM390.746 25.544C391.6 25.544 392.314 25.2453 392.89 24.648C393.488 24.0293 393.786 23.2827 393.786 22.408C393.786 21.5333 393.488 20.7973 392.89 20.2C392.314 19.5813 391.6 19.272 390.746 19.272H384.826V25.544H390.746Z" fill="#141414"/>
<path d="M373.464 60.208C371.768 60.208 370.365 59.648 369.256 58.528C368.157 57.408 367.608 56.032 367.608 54.4C367.608 52.768 368.157 51.392 369.256 50.272C370.365 49.152 371.768 48.592 373.464 48.592C374.488 48.592 375.427 48.8373 376.28 49.328C377.144 49.8187 377.816 50.48 378.296 51.312L377 52.064C376.68 51.4453 376.2 50.9547 375.56 50.592C374.931 50.2187 374.232 50.032 373.464 50.032C372.173 50.032 371.117 50.448 370.296 51.28C369.485 52.112 369.08 53.152 369.08 54.4C369.08 55.6373 369.485 56.672 370.296 57.504C371.117 58.336 372.173 58.752 373.464 58.752C374.232 58.752 374.931 58.5707 375.56 58.208C376.2 57.8347 376.68 57.344 377 56.736L378.296 57.472C377.827 58.304 377.16 58.9707 376.296 59.472C375.432 59.9627 374.488 60.208 373.464 60.208ZM379.884 60V48.32H381.276V60H379.884ZM384.104 50.544C383.837 50.544 383.613 50.4533 383.432 50.272C383.25 50.0907 383.16 49.872 383.16 49.616C383.16 49.36 383.25 49.1413 383.432 48.96C383.613 48.768 383.837 48.672 384.104 48.672C384.36 48.672 384.578 48.768 384.76 48.96C384.941 49.1413 385.032 49.36 385.032 49.616C385.032 49.872 384.941 50.0907 384.76 50.272C384.578 50.4533 384.36 50.544 384.104 50.544ZM383.4 60V52H384.792V60H383.4ZM390.675 60.208C389.47 60.208 388.467 59.808 387.667 59.008C386.867 58.1973 386.467 57.1947 386.467 56C386.467 54.8053 386.867 53.808 387.667 53.008C388.467 52.1973 389.47 51.792 390.675 51.792C391.465 51.792 392.174 51.984 392.803 52.368C393.433 52.7413 393.902 53.248 394.211 53.888L393.043 54.56C392.841 54.1333 392.526 53.792 392.099 53.536C391.683 53.28 391.209 53.152 390.675 53.152C389.875 53.152 389.203 53.424 388.659 53.968C388.126 54.512 387.859 55.1893 387.859 56C387.859 56.8 388.126 57.472 388.659 58.016C389.203 58.56 389.875 58.832 390.675 58.832C391.209 58.832 391.689 58.7093 392.115 58.464C392.542 58.208 392.867 57.8667 393.091 57.44L394.275 58.128C393.934 58.7573 393.443 59.264 392.803 59.648C392.163 60.0213 391.454 60.208 390.675 60.208ZM402.418 60H400.69L397.042 56.208V60H395.65V48.8H397.042V55.536L400.498 52H402.29L398.466 55.872L402.418 60ZM403.954 56.64C404.093 57.3547 404.418 57.9093 404.93 58.304C405.453 58.6987 406.093 58.896 406.85 58.896C407.906 58.896 408.674 58.5067 409.154 57.728L410.338 58.4C409.559 59.6053 408.386 60.208 406.818 60.208C405.549 60.208 404.514 59.8133 403.714 59.024C402.925 58.224 402.53 57.216 402.53 56C402.53 54.7947 402.919 53.792 403.698 52.992C404.477 52.192 405.485 51.792 406.722 51.792C407.895 51.792 408.85 52.208 409.586 53.04C410.333 53.8613 410.706 54.8533 410.706 56.016C410.706 56.2187 410.69 56.4267 410.658 56.64H403.954ZM406.722 53.104C405.975 53.104 405.357 53.3173 404.866 53.744C404.375 54.16 404.071 54.72 403.954 55.424H409.298C409.181 54.6667 408.882 54.0907 408.402 53.696C407.922 53.3013 407.362 53.104 406.722 53.104ZM418.914 48.8H420.306V60H418.914V58.624C418.221 59.68 417.213 60.208 415.89 60.208C414.77 60.208 413.816 59.8027 413.026 58.992C412.237 58.1707 411.842 57.1733 411.842 56C411.842 54.8267 412.237 53.8347 413.026 53.024C413.816 52.2027 414.77 51.792 415.89 51.792C417.213 51.792 418.221 52.32 418.914 53.376V48.8ZM416.066 58.864C416.877 58.864 417.554 58.592 418.098 58.048C418.642 57.4933 418.914 56.8107 418.914 56C418.914 55.1893 418.642 54.512 418.098 53.968C417.554 53.4133 416.877 53.136 416.066 53.136C415.266 53.136 414.594 53.4133 414.05 53.968C413.506 54.512 413.234 55.1893 413.234 56C413.234 56.8107 413.506 57.4933 414.05 58.048C414.594 58.592 415.266 58.864 416.066 58.864ZM435.583 59.536L434.335 60.256L433.199 59.04C432.367 59.8187 431.301 60.208 429.999 60.208C428.879 60.208 427.973 59.92 427.279 59.344C426.586 58.7573 426.239 57.968 426.239 56.976C426.239 56.2933 426.41 55.6693 426.751 55.104C427.103 54.528 427.615 54.0747 428.287 53.744C427.807 53.136 427.567 52.4587 427.567 51.712C427.567 50.784 427.887 50.032 428.527 49.456C429.178 48.88 429.957 48.592 430.863 48.592C431.61 48.592 432.287 48.7947 432.895 49.2C433.503 49.6053 433.941 50.1653 434.207 50.88L432.959 51.6C432.799 51.1093 432.533 50.7253 432.159 50.448C431.797 50.1707 431.375 50.032 430.895 50.032C430.383 50.032 429.946 50.1867 429.583 50.496C429.231 50.8053 429.055 51.2053 429.055 51.696C429.055 52.048 429.135 52.368 429.295 52.656C429.466 52.9333 429.717 53.248 430.047 53.6L433.103 56.864C433.37 56.3093 433.562 55.632 433.679 54.832L434.959 55.568C434.81 56.4533 434.522 57.248 434.095 57.952L435.583 59.536ZM430.031 58.8C430.917 58.8 431.653 58.5387 432.239 58.016L429.215 54.768C428.703 54.9813 428.325 55.28 428.079 55.664C427.845 56.048 427.727 56.4533 427.727 56.88C427.727 57.4773 427.93 57.9467 428.335 58.288C428.741 58.6293 429.306 58.8 430.031 58.8ZM444.769 60.208C443.724 60.208 442.828 59.9627 442.081 59.472C441.345 58.9813 440.828 58.3093 440.529 57.456L441.809 56.72C442.246 58.0747 443.244 58.752 444.801 58.752C445.569 58.752 446.156 58.5973 446.561 58.288C446.966 57.968 447.169 57.5467 447.169 57.024C447.169 56.4907 446.966 56.0907 446.561 55.824C446.156 55.5573 445.478 55.2747 444.529 54.976C444.06 54.8267 443.702 54.7093 443.457 54.624C443.212 54.528 442.902 54.3893 442.529 54.208C442.166 54.016 441.894 53.824 441.713 53.632C441.532 53.4293 441.366 53.168 441.217 52.848C441.078 52.528 441.009 52.1653 441.009 51.76C441.009 50.7893 441.35 50.0213 442.033 49.456C442.716 48.88 443.548 48.592 444.529 48.592C445.414 48.592 446.182 48.816 446.833 49.264C447.494 49.712 447.99 50.304 448.321 51.04L447.073 51.76C446.593 50.608 445.745 50.032 444.529 50.032C443.921 50.032 443.43 50.1813 443.057 50.48C442.684 50.7787 442.497 51.184 442.497 51.696C442.497 52.1867 442.673 52.56 443.025 52.816C443.377 53.072 443.985 53.3387 444.849 53.616C445.158 53.712 445.377 53.7813 445.505 53.824C445.633 53.8667 445.83 53.9413 446.097 54.048C446.374 54.1547 446.577 54.24 446.705 54.304C446.833 54.368 447.004 54.4587 447.217 54.576C447.441 54.6933 447.606 54.8053 447.713 54.912C447.82 55.0187 447.942 55.152 448.081 55.312C448.23 55.4613 448.337 55.616 448.401 55.776C448.465 55.936 448.518 56.1227 448.561 56.336C448.614 56.5387 448.641 56.7573 448.641 56.992C448.641 57.9733 448.284 58.7573 447.569 59.344C446.854 59.92 445.921 60.208 444.769 60.208ZM454.207 60.208C453.001 60.208 451.999 59.808 451.199 59.008C450.399 58.1973 449.999 57.1947 449.999 56C449.999 54.8053 450.399 53.808 451.199 53.008C451.999 52.1973 453.001 51.792 454.207 51.792C454.996 51.792 455.705 51.984 456.335 52.368C456.964 52.7413 457.433 53.248 457.743 53.888L456.575 54.56C456.372 54.1333 456.057 53.792 455.631 53.536C455.215 53.28 454.74 53.152 454.207 53.152C453.407 53.152 452.735 53.424 452.191 53.968C451.657 54.512 451.391 55.1893 451.391 56C451.391 56.8 451.657 57.472 452.191 58.016C452.735 58.56 453.407 58.832 454.207 58.832C454.74 58.832 455.22 58.7093 455.647 58.464C456.073 58.208 456.399 57.8667 456.623 57.44L457.807 58.128C457.465 58.7573 456.975 59.264 456.335 59.648C455.695 60.0213 454.985 60.208 454.207 60.208ZM465.696 52H467.088V60H465.696V58.624C465.002 59.68 463.994 60.208 462.672 60.208C461.552 60.208 460.597 59.8027 459.808 58.992C459.018 58.1707 458.624 57.1733 458.624 56C458.624 54.8267 459.018 53.8347 459.808 53.024C460.597 52.2027 461.552 51.792 462.672 51.792C463.994 51.792 465.002 52.32 465.696 53.376V52ZM462.848 58.864C463.658 58.864 464.336 58.592 464.88 58.048C465.424 57.4933 465.696 56.8107 465.696 56C465.696 55.1893 465.424 54.512 464.88 53.968C464.336 53.4133 463.658 53.136 462.848 53.136C462.048 53.136 461.376 53.4133 460.832 53.968C460.288 54.512 460.016 55.1893 460.016 56C460.016 56.8107 460.288 57.4933 460.832 58.048C461.376 58.592 462.048 58.864 462.848 58.864ZM473.181 51.792C474.119 51.792 474.871 52.0907 475.437 52.688C476.002 53.2747 476.285 54.0747 476.285 55.088V60H474.893V55.168C474.893 54.5173 474.717 54.016 474.365 53.664C474.013 53.3013 473.527 53.12 472.909 53.12C472.215 53.12 471.655 53.3387 471.229 53.776C470.802 54.2027 470.589 54.864 470.589 55.76V60H469.197V52H470.589V53.152C471.154 52.2453 472.018 51.792 473.181 51.792ZM482.212 51.792C483.151 51.792 483.903 52.0907 484.468 52.688C485.033 53.2747 485.316 54.0747 485.316 55.088V60H483.924V55.168C483.924 54.5173 483.748 54.016 483.396 53.664C483.044 53.3013 482.559 53.12 481.94 53.12C481.247 53.12 480.687 53.3387 480.26 53.776C479.833 54.2027 479.62 54.864 479.62 55.76V60H478.228V52H479.62V53.152C480.185 52.2453 481.049 51.792 482.212 51.792ZM488.235 56.64C488.374 57.3547 488.699 57.9093 489.211 58.304C489.734 58.6987 490.374 58.896 491.131 58.896C492.187 58.896 492.955 58.5067 493.435 57.728L494.619 58.4C493.84 59.6053 492.667 60.208 491.099 60.208C489.83 60.208 488.795 59.8133 487.995 59.024C487.206 58.224 486.811 57.216 486.811 56C486.811 54.7947 487.2 53.792 487.979 52.992C488.758 52.192 489.766 51.792 491.003 51.792C492.176 51.792 493.131 52.208 493.867 53.04C494.614 53.8613 494.987 54.8533 494.987 56.016C494.987 56.2187 494.971 56.4267 494.939 56.64H488.235ZM491.003 53.104C490.256 53.104 489.638 53.3173 489.147 53.744C488.656 54.16 488.352 54.72 488.235 55.424H493.579C493.462 54.6667 493.163 54.0907 492.683 53.696C492.203 53.3013 491.643 53.104 491.003 53.104ZM503.196 48.8H504.588V60H503.196V58.624C502.502 59.68 501.494 60.208 500.172 60.208C499.052 60.208 498.097 59.8027 497.308 58.992C496.518 58.1707 496.124 57.1733 496.124 56C496.124 54.8267 496.518 53.8347 497.308 53.024C498.097 52.2027 499.052 51.792 500.172 51.792C501.494 51.792 502.502 52.32 503.196 53.376V48.8ZM500.348 58.864C501.158 58.864 501.836 58.592 502.38 58.048C502.924 57.4933 503.196 56.8107 503.196 56C503.196 55.1893 502.924 54.512 502.38 53.968C501.836 53.4133 501.158 53.136 500.348 53.136C499.548 53.136 498.876 53.4133 498.332 53.968C497.788 54.512 497.516 55.1893 497.516 56C497.516 56.8107 497.788 57.4933 498.332 58.048C498.876 58.592 499.548 58.864 500.348 58.864ZM371.816 84.208C370.611 84.208 369.608 83.808 368.808 83.008C368.008 82.1973 367.608 81.1947 367.608 80C367.608 78.8053 368.008 77.808 368.808 77.008C369.608 76.1973 370.611 75.792 371.816 75.792C372.605 75.792 373.315 75.984 373.944 76.368C374.573 76.7413 375.043 77.248 375.352 77.888L374.184 78.56C373.981 78.1333 373.667 77.792 373.24 77.536C372.824 77.28 372.349 77.152 371.816 77.152C371.016 77.152 370.344 77.424 369.8 77.968C369.267 78.512 369 79.1893 369 80C369 80.8 369.267 81.472 369.8 82.016C370.344 82.56 371.016 82.832 371.816 82.832C372.349 82.832 372.829 82.7093 373.256 82.464C373.683 82.208 374.008 81.8667 374.232 81.44L375.416 82.128C375.075 82.7573 374.584 83.264 373.944 83.648C373.304 84.0213 372.595 84.208 371.816 84.208ZM383.433 82.992C382.612 83.8027 381.614 84.208 380.441 84.208C379.268 84.208 378.27 83.8027 377.449 82.992C376.638 82.1813 376.233 81.184 376.233 80C376.233 78.816 376.638 77.8187 377.449 77.008C378.27 76.1973 379.268 75.792 380.441 75.792C381.614 75.792 382.612 76.1973 383.433 77.008C384.254 77.8187 384.665 78.816 384.665 80C384.665 81.184 384.254 82.1813 383.433 82.992ZM380.441 82.848C381.241 82.848 381.913 82.576 382.457 82.032C383.001 81.488 383.273 80.8107 383.273 80C383.273 79.1893 383.001 78.512 382.457 77.968C381.913 77.424 381.241 77.152 380.441 77.152C379.652 77.152 378.985 77.424 378.441 77.968C377.897 78.512 377.625 79.1893 377.625 80C377.625 80.8107 377.897 81.488 378.441 82.032C378.985 82.576 379.652 82.848 380.441 82.848ZM390.29 75.792C391.229 75.792 391.981 76.0907 392.546 76.688C393.111 77.2747 393.394 78.0747 393.394 79.088V84H392.002V79.168C392.002 78.5173 391.826 78.016 391.474 77.664C391.122 77.3013 390.637 77.12 390.018 77.12C389.325 77.12 388.765 77.3387 388.338 77.776C387.911 78.2027 387.698 78.864 387.698 79.76V84H386.306V76H387.698V77.152C388.263 76.2453 389.127 75.792 390.29 75.792ZM399.321 75.792C400.26 75.792 401.012 76.0907 401.577 76.688C402.143 77.2747 402.425 78.0747 402.425 79.088V84H401.033V79.168C401.033 78.5173 400.857 78.016 400.505 77.664C400.153 77.3013 399.668 77.12 399.049 77.12C398.356 77.12 397.796 77.3387 397.369 77.776C396.943 78.2027 396.729 78.864 396.729 79.76V84H395.337V76H396.729V77.152C397.295 76.2453 398.159 75.792 399.321 75.792ZM405.345 80.64C405.483 81.3547 405.809 81.9093 406.321 82.304C406.843 82.6987 407.483 82.896 408.241 82.896C409.297 82.896 410.065 82.5067 410.545 81.728L411.729 82.4C410.95 83.6053 409.777 84.208 408.209 84.208C406.939 84.208 405.905 83.8133 405.105 83.024C404.315 82.224 403.921 81.216 403.921 80C403.921 78.7947 404.31 77.792 405.089 76.992C405.867 76.192 406.875 75.792 408.113 75.792C409.286 75.792 410.241 76.208 410.977 77.04C411.723 77.8613 412.097 78.8533 412.097 80.016C412.097 80.2187 412.081 80.4267 412.049 80.64H405.345ZM408.113 77.104C407.366 77.104 406.747 77.3173 406.257 77.744C405.766 78.16 405.462 78.72 405.345 79.424H410.689C410.571 78.6667 410.273 78.0907 409.793 77.696C409.313 77.3013 408.753 77.104 408.113 77.104ZM417.441 84.208C416.236 84.208 415.233 83.808 414.433 83.008C413.633 82.1973 413.233 81.1947 413.233 80C413.233 78.8053 413.633 77.808 414.433 77.008C415.233 76.1973 416.236 75.792 417.441 75.792C418.23 75.792 418.94 75.984 419.569 76.368C420.198 76.7413 420.668 77.248 420.977 77.888L419.809 78.56C419.606 78.1333 419.292 77.792 418.865 77.536C418.449 77.28 417.974 77.152 417.441 77.152C416.641 77.152 415.969 77.424 415.425 77.968C414.892 78.512 414.625 79.1893 414.625 80C414.625 80.8 414.892 81.472 415.425 82.016C415.969 82.56 416.641 82.832 417.441 82.832C417.974 82.832 418.454 82.7093 418.881 82.464C419.308 82.208 419.633 81.8667 419.857 81.44L421.041 82.128C420.7 82.7573 420.209 83.264 419.569 83.648C418.929 84.0213 418.22 84.208 417.441 84.208ZM426.767 77.344H424.639V81.68C424.639 82.0747 424.714 82.3573 424.863 82.528C425.023 82.688 425.263 82.7733 425.583 82.784C425.903 82.784 426.298 82.7733 426.767 82.752V84C425.551 84.16 424.661 84.064 424.095 83.712C423.53 83.3493 423.247 82.672 423.247 81.68V77.344H421.663V76H423.247V74.176L424.639 73.76V76H426.767V77.344ZM429.119 74.544C428.853 74.544 428.629 74.4533 428.447 74.272C428.266 74.0907 428.175 73.872 428.175 73.616C428.175 73.36 428.266 73.1413 428.447 72.96C428.629 72.768 428.853 72.672 429.119 72.672C429.375 72.672 429.594 72.768 429.775 72.96C429.957 73.1413 430.047 73.36 430.047 73.616C430.047 73.872 429.957 74.0907 429.775 74.272C429.594 74.4533 429.375 74.544 429.119 74.544ZM428.415 84V76H429.807V84H428.415ZM438.683 82.992C437.862 83.8027 436.864 84.208 435.691 84.208C434.518 84.208 433.52 83.8027 432.699 82.992C431.888 82.1813 431.483 81.184 431.483 80C431.483 78.816 431.888 77.8187 432.699 77.008C433.52 76.1973 434.518 75.792 435.691 75.792C436.864 75.792 437.862 76.1973 438.683 77.008C439.504 77.8187 439.915 78.816 439.915 80C439.915 81.184 439.504 82.1813 438.683 82.992ZM435.691 82.848C436.491 82.848 437.163 82.576 437.707 82.032C438.251 81.488 438.523 80.8107 438.523 80C438.523 79.1893 438.251 78.512 437.707 77.968C437.163 77.424 436.491 77.152 435.691 77.152C434.902 77.152 434.235 77.424 433.691 77.968C433.147 78.512 432.875 79.1893 432.875 80C432.875 80.8107 433.147 81.488 433.691 82.032C434.235 82.576 434.902 82.848 435.691 82.848ZM445.54 75.792C446.479 75.792 447.231 76.0907 447.796 76.688C448.361 77.2747 448.644 78.0747 448.644 79.088V84H447.252V79.168C447.252 78.5173 447.076 78.016 446.724 77.664C446.372 77.3013 445.887 77.12 445.268 77.12C444.575 77.12 444.015 77.3387 443.588 77.776C443.161 78.2027 442.948 78.864 442.948 79.76V84H441.556V76H442.948V77.152C443.513 76.2453 444.377 75.792 445.54 75.792ZM451.787 78.16C451.787 78.4693 451.942 78.72 452.251 78.912C452.561 79.0933 452.934 79.2427 453.371 79.36C453.809 79.4667 454.246 79.5947 454.683 79.744C455.121 79.8827 455.494 80.128 455.803 80.48C456.113 80.8213 456.267 81.264 456.267 81.808C456.267 82.5333 455.985 83.1147 455.419 83.552C454.865 83.9893 454.15 84.208 453.275 84.208C452.497 84.208 451.83 84.0373 451.275 83.696C450.721 83.3547 450.326 82.9013 450.091 82.336L451.291 81.648C451.419 82.032 451.659 82.336 452.011 82.56C452.363 82.784 452.785 82.896 453.275 82.896C453.734 82.896 454.113 82.8107 454.411 82.64C454.71 82.4587 454.859 82.1813 454.859 81.808C454.859 81.4987 454.705 81.2533 454.395 81.072C454.086 80.88 453.713 80.7307 453.275 80.624C452.838 80.5067 452.401 80.3733 451.963 80.224C451.526 80.0747 451.153 79.8293 450.843 79.488C450.534 79.1467 450.379 78.7093 450.379 78.176C450.379 77.4827 450.646 76.912 451.179 76.464C451.723 76.016 452.401 75.792 453.211 75.792C453.862 75.792 454.438 75.9413 454.939 76.24C455.451 76.528 455.835 76.9333 456.091 77.456L454.923 78.112C454.635 77.4293 454.065 77.088 453.211 77.088C452.817 77.088 452.481 77.184 452.203 77.376C451.926 77.5573 451.787 77.8187 451.787 78.16Z" fill="#141414"/>
<path d="M592.688 15.752C594.309 16.136 595.621 16.8933 596.624 18.024C597.648 19.1333 598.16 20.5307 598.16 22.216C598.16 24.456 597.403 26.216 595.888 27.496C594.373 28.776 592.517 29.416 590.32 29.416C588.613 29.416 587.077 29.0213 585.712 28.232C584.368 27.4427 583.397 26.2907 582.8 24.776L585.936 22.952C586.597 24.872 588.059 25.832 590.32 25.832C591.6 25.832 592.613 25.512 593.36 24.872C594.107 24.2107 594.48 23.3253 594.48 22.216C594.48 21.1067 594.107 20.232 593.36 19.592C592.613 18.952 591.6 18.632 590.32 18.632H589.488L588.016 16.424L592.848 10.056H583.472V6.6H597.232V9.736L592.688 15.752ZM615.825 26.248C614.289 28.36 612.135 29.416 609.361 29.416C606.588 29.416 604.423 28.36 602.865 26.248C601.329 24.136 600.561 21.32 600.561 17.8C600.561 14.28 601.329 11.464 602.865 9.352C604.423 7.24 606.588 6.184 609.361 6.184C612.135 6.184 614.289 7.24 615.825 9.352C617.383 11.464 618.161 14.28 618.161 17.8C618.161 21.32 617.383 24.136 615.825 26.248ZM609.361 25.832C611.025 25.832 612.295 25.1387 613.169 23.752C614.044 22.3653 614.481 20.3813 614.481 17.8C614.481 15.2187 614.044 13.2347 613.169 11.848C612.295 10.4613 611.025 9.768 609.361 9.768C607.719 9.768 606.449 10.4613 605.553 11.848C604.679 13.2347 604.241 15.2187 604.241 17.8C604.241 20.3813 604.679 22.3653 605.553 23.752C606.449 25.1387 607.719 25.832 609.361 25.832ZM635.982 26.248C634.446 28.36 632.291 29.416 629.518 29.416C626.744 29.416 624.579 28.36 623.022 26.248C621.486 24.136 620.718 21.32 620.718 17.8C620.718 14.28 621.486 11.464 623.022 9.352C624.579 7.24 626.744 6.184 629.518 6.184C632.291 6.184 634.446 7.24 635.982 9.352C637.539 11.464 638.318 14.28 638.318 17.8C638.318 21.32 637.539 24.136 635.982 26.248ZM629.518 25.832C631.182 25.832 632.451 25.1387 633.326 23.752C634.2 22.3653 634.638 20.3813 634.638 17.8C634.638 15.2187 634.2 13.2347 633.326 11.848C632.451 10.4613 631.182 9.768 629.518 9.768C627.875 9.768 626.606 10.4613 625.71 11.848C624.835 13.2347 624.398 15.2187 624.398 17.8C624.398 20.3813 624.835 22.3653 625.71 23.752C626.606 25.1387 627.875 25.832 629.518 25.832ZM655.754 29H651.626L645.066 21.608V29H641.61V6.6H645.066V20.072L651.274 13H655.498L648.458 20.84L655.754 29Z" fill="#141414"/>
<path d="M590.576 60L589.664 57.488H584.624L583.712 60H582.128L586.304 48.8H587.984L592.16 60H590.576ZM585.136 56.096H589.152L587.136 50.576L585.136 56.096ZM597.753 51.792C598.873 51.792 599.828 52.2027 600.617 53.024C601.407 53.8347 601.801 54.8267 601.801 56C601.801 57.1733 601.407 58.1707 600.617 58.992C599.828 59.8027 598.873 60.208 597.753 60.208C596.431 60.208 595.423 59.68 594.729 58.624V63.2H593.337V52H594.729V53.376C595.423 52.32 596.431 51.792 597.753 51.792ZM597.577 58.864C598.377 58.864 599.049 58.592 599.593 58.048C600.137 57.4933 600.409 56.8107 600.409 56C600.409 55.1893 600.137 54.512 599.593 53.968C599.049 53.4133 598.377 53.136 597.577 53.136C596.767 53.136 596.089 53.4133 595.545 53.968C595.001 54.512 594.729 55.1893 594.729 56C594.729 56.8107 595.001 57.4933 595.545 58.048C596.089 58.592 596.767 58.864 597.577 58.864ZM607.878 51.792C608.998 51.792 609.953 52.2027 610.742 53.024C611.532 53.8347 611.926 54.8267 611.926 56C611.926 57.1733 611.532 58.1707 610.742 58.992C609.953 59.8027 608.998 60.208 607.878 60.208C606.556 60.208 605.548 59.68 604.854 58.624V63.2H603.462V52H604.854V53.376C605.548 52.32 606.556 51.792 607.878 51.792ZM607.702 58.864C608.502 58.864 609.174 58.592 609.718 58.048C610.262 57.4933 610.534 56.8107 610.534 56C610.534 55.1893 610.262 54.512 609.718 53.968C609.174 53.4133 608.502 53.136 607.702 53.136C606.892 53.136 606.214 53.4133 605.67 53.968C605.126 54.512 604.854 55.1893 604.854 56C604.854 56.8107 605.126 57.4933 605.67 58.048C606.214 58.592 606.892 58.864 607.702 58.864ZM617.731 48.8H619.219V60H617.731V48.8ZM625.462 51.792C626.401 51.792 627.153 52.0907 627.718 52.688C628.283 53.2747 628.566 54.0747 628.566 55.088V60H627.174V55.168C627.174 54.5173 626.998 54.016 626.646 53.664C626.294 53.3013 625.809 53.12 625.19 53.12C624.497 53.12 623.937 53.3387 623.51 53.776C623.083 54.2027 622.87 54.864 622.87 55.76V60H621.478V52H622.87V53.152C623.435 52.2453 624.299 51.792 625.462 51.792ZM634.861 53.344H632.733V57.68C632.733 58.0747 632.808 58.3573 632.957 58.528C633.117 58.688 633.357 58.7733 633.677 58.784C633.997 58.784 634.392 58.7733 634.861 58.752V60C633.645 60.16 632.754 60.064 632.189 59.712C631.624 59.3493 631.341 58.672 631.341 57.68V53.344H629.757V52H631.341V50.176L632.733 49.76V52H634.861V53.344ZM637.079 56.64C637.218 57.3547 637.543 57.9093 638.055 58.304C638.578 58.6987 639.218 58.896 639.975 58.896C641.031 58.896 641.799 58.5067 642.279 57.728L643.463 58.4C642.684 59.6053 641.511 60.208 639.943 60.208C638.674 60.208 637.639 59.8133 636.839 59.024C636.05 58.224 635.655 57.216 635.655 56C635.655 54.7947 636.044 53.792 636.823 52.992C637.602 52.192 638.61 51.792 639.847 51.792C641.02 51.792 641.975 52.208 642.711 53.04C643.458 53.8613 643.831 54.8533 643.831 56.016C643.831 56.2187 643.815 56.4267 643.783 56.64H637.079ZM639.847 53.104C639.1 53.104 638.482 53.3173 637.991 53.744C637.5 54.16 637.196 54.72 637.079 55.424H642.423C642.306 54.6667 642.007 54.0907 641.527 53.696C641.047 53.3013 640.487 53.104 639.847 53.104ZM652.055 52H653.431V59.664C653.431 60.848 653.031 61.7653 652.231 62.416C651.431 63.0773 650.471 63.408 649.351 63.408C648.455 63.408 647.682 63.2373 647.031 62.896C646.381 62.5653 645.89 62.0853 645.559 61.456L646.775 60.768C647.213 61.664 648.082 62.112 649.383 62.112C650.215 62.112 650.866 61.8933 651.335 61.456C651.815 61.0187 652.055 60.4213 652.055 59.664V58.528C651.351 59.5947 650.349 60.128 649.047 60.128C647.906 60.128 646.941 59.7227 646.151 58.912C645.362 58.1013 644.967 57.1147 644.967 55.952C644.967 54.7893 645.362 53.808 646.151 53.008C646.941 52.1973 647.906 51.792 649.047 51.792C650.359 51.792 651.362 52.32 652.055 53.376V52ZM647.175 57.984C647.719 58.528 648.397 58.8 649.207 58.8C650.018 58.8 650.695 58.528 651.239 57.984C651.783 57.44 652.055 56.7627 652.055 55.952C652.055 55.152 651.783 54.48 651.239 53.936C650.695 53.392 650.018 53.12 649.207 53.12C648.397 53.12 647.719 53.392 647.175 53.936C646.631 54.48 646.359 55.152 646.359 55.952C646.359 56.7627 646.631 57.44 647.175 57.984ZM656.932 53.344C657.391 52.352 658.223 51.856 659.428 51.856V53.312C658.746 53.28 658.159 53.4613 657.668 53.856C657.178 54.2507 656.932 54.8853 656.932 55.76V60H655.54V52H656.932V53.344ZM666.977 52H668.369V60H666.977V58.624C666.284 59.68 665.276 60.208 663.953 60.208C662.833 60.208 661.878 59.8027 661.089 58.992C660.3 58.1707 659.905 57.1733 659.905 56C659.905 54.8267 660.3 53.8347 661.089 53.024C661.878 52.2027 662.833 51.792 663.953 51.792C665.276 51.792 666.284 52.32 666.977 53.376V52ZM664.129 58.864C664.94 58.864 665.617 58.592 666.161 58.048C666.705 57.4933 666.977 56.8107 666.977 56C666.977 55.1893 666.705 54.512 666.161 53.968C665.617 53.4133 664.94 53.136 664.129 53.136C663.329 53.136 662.657 53.4133 662.113 53.968C661.569 54.512 661.297 55.1893 661.297 56C661.297 56.8107 661.569 57.4933 662.113 58.048C662.657 58.592 663.329 58.864 664.129 58.864ZM674.83 53.344H672.702V57.68C672.702 58.0747 672.777 58.3573 672.926 58.528C673.086 58.688 673.326 58.7733 673.646 58.784C673.966 58.784 674.361 58.7733 674.83 58.752V60C673.614 60.16 672.723 60.064 672.158 59.712C671.593 59.3493 671.31 58.672 671.31 57.68V53.344H669.726V52H671.31V50.176L672.702 49.76V52H674.83V53.344ZM677.182 50.544C676.915 50.544 676.691 50.4533 676.51 50.272C676.329 50.0907 676.238 49.872 676.238 49.616C676.238 49.36 676.329 49.1413 676.51 48.96C676.691 48.768 676.915 48.672 677.182 48.672C677.438 48.672 677.657 48.768 677.838 48.96C678.019 49.1413 678.11 49.36 678.11 49.616C678.11 49.872 678.019 50.0907 677.838 50.272C677.657 50.4533 677.438 50.544 677.182 50.544ZM676.478 60V52H677.87V60H676.478ZM686.746 58.992C685.924 59.8027 684.927 60.208 683.754 60.208C682.58 60.208 681.583 59.8027 680.762 58.992C679.951 58.1813 679.546 57.184 679.546 56C679.546 54.816 679.951 53.8187 680.762 53.008C681.583 52.1973 682.58 51.792 683.754 51.792C684.927 51.792 685.924 52.1973 686.746 53.008C687.567 53.8187 687.977 54.816 687.977 56C687.977 57.184 687.567 58.1813 686.746 58.992ZM683.754 58.848C684.554 58.848 685.226 58.576 685.77 58.032C686.314 57.488 686.586 56.8107 686.586 56C686.586 55.1893 686.314 54.512 685.77 53.968C685.226 53.424 684.554 53.152 683.754 53.152C682.964 53.152 682.298 53.424 681.754 53.968C681.21 54.512 680.938 55.1893 680.938 56C680.938 56.8107 681.21 57.488 681.754 58.032C682.298 58.576 682.964 58.848 683.754 58.848ZM693.603 51.792C694.541 51.792 695.293 52.0907 695.859 52.688C696.424 53.2747 696.707 54.0747 696.707 55.088V60H695.315V55.168C695.315 54.5173 695.139 54.016 694.787 53.664C694.435 53.3013 693.949 53.12 693.331 53.12C692.637 53.12 692.077 53.3387 691.651 53.776C691.224 54.2027 691.011 54.864 691.011 55.76V60H689.618V52H691.011V53.152C691.576 52.2453 692.44 51.792 693.603 51.792ZM699.85 54.16C699.85 54.4693 700.004 54.72 700.314 54.912C700.623 55.0933 700.996 55.2427 701.434 55.36C701.871 55.4667 702.308 55.5947 702.746 55.744C703.183 55.8827 703.556 56.128 703.866 56.48C704.175 56.8213 704.33 57.264 704.33 57.808C704.33 58.5333 704.047 59.1147 703.482 59.552C702.927 59.9893 702.212 60.208 701.338 60.208C700.559 60.208 699.892 60.0373 699.338 59.696C698.783 59.3547 698.388 58.9013 698.154 58.336L699.354 57.648C699.482 58.032 699.722 58.336 700.074 58.56C700.426 58.784 700.847 58.896 701.338 58.896C701.796 58.896 702.175 58.8107 702.474 58.64C702.772 58.4587 702.922 58.1813 702.922 57.808C702.922 57.4987 702.767 57.2533 702.458 57.072C702.148 56.88 701.775 56.7307 701.338 56.624C700.9 56.5067 700.463 56.3733 700.026 56.224C699.588 56.0747 699.215 55.8293 698.906 55.488C698.596 55.1467 698.442 54.7093 698.442 54.176C698.442 53.4827 698.708 52.912 699.242 52.464C699.786 52.016 700.463 51.792 701.274 51.792C701.924 51.792 702.5 51.9413 703.002 52.24C703.514 52.528 703.898 52.9333 704.154 53.456L702.986 54.112C702.698 53.4293 702.127 53.088 701.274 53.088C700.879 53.088 700.543 53.184 700.266 53.376C699.988 53.5573 699.85 53.8187 699.85 54.16Z" fill="#141414"/>
</svg>
