<svg width="54" height="18" viewBox="0 0 54 18" fill="none" xmlns="http://www.w3.org/2000/svg">
<path d="M18.1443 14.192C20.8163 14.192 22.4163 12.128 22.4163 7.616C22.4163 4.64 20.9603 3.28 19.0403 3.28C17.1202 3.28 15.6002 4.592 15.6002 6.848C15.6002 8.848 16.9922 10.192 18.8323 10.192C19.9043 10.192 20.9283 9.712 21.4563 8.736C21.2483 11.856 20.1123 13.376 18.0963 13.376C17.3602 13.376 16.5762 13.12 16.0163 12.832V13.776C16.6083 14.016 17.4243 14.192 18.1443 14.192ZM18.9283 9.424C17.4722 9.424 16.4963 8.224 16.4963 6.816C16.4963 5.232 17.5203 4.064 19.0243 4.064C20.5603 4.064 21.4723 5.36 21.4723 7.248C21.4243 8.464 20.2882 9.424 18.9283 9.424ZM23.9665 9.056H24.9585V8.064H23.9665V9.056ZM23.9665 14H24.9585V13.008H23.9665V14ZM31.1926 14H32.0886V11.056H33.6566V10.256H32.0886V3.28H31.1126L26.3286 10.4V11.056H31.1926V14ZM31.1926 10.256H27.3206L31.1926 4.544V10.256ZM36.6316 14H37.5276V3.184L34.6316 3.696V4.576L36.6316 4.208V14Z" fill="#011C34"/>
</svg>
